<svg xmlns="http://www.w3.org/2000/svg" viewBox="0 0 100 100">
  <path d="M50 18
           C63 29,72 38,81 47
           C72 56,63 65,50 76
           C37 65,28 56,19 47
           C28 38,37 29,50 18 Z" fill="#8a5a2b"/>
  <path d="M51 15
           C46 20,44 26,43 31
           C42 37,45 43,48 49
           C51 55,52 61,50 67
           C48 74,43 80,38 87
           C44 84,49 79,53 73
           C57 67,58 60,56 53
           C54 47,52 40,51 34
           C50 27,51 21,56 16 Z" fill="#f08a16"/>
  <path d="M49 19
           C46 24,45 29,45 34
           C46 39,48 43,50 48
           C51 53,51 58,49 64
           C47 71,43 77,40 83
           C44 79,47 74,49 69
           C52 63,53 58,52 52
           C51 46,49 41,48 35
           C47 29,48 24,52 19 Z" fill="#f7ae3d"/>
</svg>