<?xml version="1.0" encoding="utf-8"?>
<!-- Generator: Adobe Illustrator 25.2.1, SVG Export Plug-In . SVG Version: 6.00 Build 0)  -->
<svg version="1.1" id="Camada_1" xmlns="http://www.w3.org/2000/svg" xmlns:xlink="http://www.w3.org/1999/xlink" x="0px" y="0px"
	 viewBox="0 0 100 100" style="enable-background:new 0 0 100 100;" xml:space="preserve">
<style type="text/css">
	.st0{fill:#754C24;}
	.st1{opacity:0.85;}
	.st2{fill:#AA4300;}
	.st3{fill:#DD7517;}
</style>
<path class="st0" d="M75.23,56.51l-18.7,18.7c-3.43,3.43-8.99,3.43-12.41,0l-18.7-18.7c-3.43-3.43-3.43-8.99,0-12.41l18.7-18.7
	c3.43-3.43,8.99-3.43,12.41,0l18.7,18.7C78.66,47.52,78.66,53.08,75.23,56.51z"/>
<g class="st1">
	<path class="st2" d="M53.07,74.9c1.73-3.83,2.47-8.14,2.1-12.39c-0.06-0.53-0.1-1.06-0.19-1.59l-0.13-0.79
		c-0.05-0.26-0.11-0.53-0.16-0.79c-0.1-0.53-0.25-1.04-0.4-1.56c-0.07-0.26-0.15-0.52-0.23-0.77c-0.08-0.25-0.16-0.51-0.26-0.75
		c-0.7-1.99-1.6-3.79-2.46-5.5l-1.26-2.5c-0.41-0.81-0.79-1.61-1.13-2.41c-0.34-0.8-0.62-1.57-0.88-2.37l-0.19-0.6l-0.16-0.61
		c-0.11-0.4-0.19-0.82-0.28-1.23c-0.32-1.65-0.49-3.36-0.46-5.08c0.02-1.72,0.18-3.46,0.53-5.17c1.36-6.86,5.2-13.46,11.38-17.99
		c0.77-0.36,1.56-0.68,2.36-0.93C55.07,16.39,51.22,23,49.86,29.87c-0.35,1.72-0.52,3.45-0.53,5.17c-0.03,1.72,0.14,3.42,0.46,5.08
		c0.09,0.41,0.16,0.83,0.28,1.23l0.16,0.61l0.19,0.6c0.25,0.8,0.53,1.57,0.88,2.37c0.34,0.79,0.72,1.59,1.13,2.41l1.26,2.5
		c0.86,1.71,1.76,3.51,2.46,5.5c0.09,0.24,0.17,0.5,0.26,0.75c0.09,0.25,0.16,0.51,0.23,0.77c0.15,0.52,0.3,1.03,0.4,1.56
		c0.05,0.26,0.11,0.52,0.16,0.79L57.31,60c0.09,0.53,0.13,1.06,0.19,1.59c0.37,4.25-0.36,8.56-2.1,12.39
		c-2.65,5.99-7.88,10.5-13.7,12.39C46.56,84.14,50.78,80.08,53.07,74.9z"/>
	<path class="st3" d="M46.99,35.96c-0.03,1.72,0.14,3.42,0.46,5.08c0.09,0.41,0.16,0.83,0.28,1.23l0.16,0.61l0.19,0.6
		c0.25,0.8,0.53,1.57,0.88,2.37c0.34,0.79,0.72,1.59,1.13,2.41l1.26,2.5c0.86,1.71,1.76,3.51,2.46,5.5c0.09,0.24,0.17,0.5,0.26,0.75
		c0.09,0.25,0.16,0.51,0.23,0.77c0.15,0.52,0.3,1.03,0.4,1.56c0.05,0.26,0.11,0.52,0.16,0.79l0.13,0.79
		c0.09,0.53,0.13,1.06,0.19,1.59c0.37,4.25-0.36,8.56-2.1,12.39c-2.29,5.18-6.51,9.24-11.37,11.47c-2.42,1.11-4.99,1.77-7.56,1.88
		c3.53-1.55,6.6-3.66,9.04-6.28c1.22-1.3,2.29-2.7,3.17-4.2c0.44-0.75,0.85-1.5,1.18-2.29l0.26-0.58l0.23-0.6
		c0.16-0.39,0.28-0.8,0.42-1.2c0.51-1.62,0.85-3.29,0.98-4.96c0.16-1.67,0.12-3.36-0.1-5c-0.07-0.41-0.11-0.82-0.2-1.23l-0.12-0.61
		c-0.04-0.2-0.1-0.4-0.15-0.6c-0.09-0.4-0.21-0.8-0.33-1.19c-0.05-0.2-0.12-0.39-0.19-0.59c-0.07-0.2-0.13-0.39-0.21-0.59
		c-0.29-0.79-0.65-1.59-1.01-2.4c-0.37-0.81-0.76-1.64-1.18-2.48c-0.83-1.69-1.71-3.46-2.45-5.39c-0.37-0.96-0.72-1.98-0.97-3.01
		l-0.19-0.77l-0.15-0.78c-0.11-0.52-0.18-1.04-0.26-1.56c-0.56-4.19-0.08-8.42,1.19-12.31c1.28-3.89,3.36-7.48,6.08-10.42
		c2.7-2.94,6.09-5.23,9.75-6.42c-0.01,0.01-0.02,0.01-0.03,0.02c-6.19,4.53-10.02,11.13-11.38,17.99
		C47.17,32.5,47.01,34.24,46.99,35.96z"/>
</g>
</svg>
